#!OML:ASF F:\VICON\USERDATA\INSTALL\Justin_Nancy\Justin_Nancy.ASF
:FULLY-SPECIFIED
:DEGREES
119
root -0.511841 16.2046 10.3922 18.2707 5.89378 6.10998
lowerback 17.1521 -3.14203 -4.05591
upperback 0.0405789 -4.96859 -0.173395
thorax -9.24871 -2.18614 3.32219
lowerneck -25.3539 -3.99963 -8.80889
upperneck 1.63438 -3.90284 13.5189
head 4.96961 -1.02968 5.36799
rclavicle -6.68413e-014 -1.24986e-014
rhumerus -77.202 12.5879 -92.3941
rradius 115.963
rwrist -6.03103
rhand -18.6824 36.6994
rfingers 7.12502
rthumb 7.61166 6.85633
lclavicle -6.68413e-014 -1.24986e-014
lhumerus -20.8129 -17.5738 100.413
lradius 136.185
lwrist 33.0677
lhand -23.4628 8.09229
lfingers 7.12502
lthumb 2.99611 38.051
rfemur -52.8297 -8.9665 14.8147
rtibia 98.805
rfoot -9.29617 0.327883
rtoes -4.04186
lfemur -9.06975 -4.84539 -26.4771
ltibia 39.9888
lfoot -22.4256 -1.1889
ltoes -25.4089
120
root -0.602792 16.2326 11.0183 18.8344 4.01155 6.04952
lowerback 15.6932 -2.77476 -6.07457
upperback -0.169682 -4.76414 0.187666
thorax -8.48135 -2.02461 4.6975
lowerneck -26.0396 -3.70303 -8.67842
upperneck 2.47369 -3.55389 13.2534
head 5.28037 -0.839962 5.31254
rclavicle -2.71093e-014 1.42131e-014
rhumerus -79.1445 12.9524 -91.9777
rradius 118.12
rwrist -6.48756
rhand -18.0929 36.2413
rfingers 7.12502
rthumb 8.18066 6.41965
lclavicle -2.71093e-014 1.42131e-014
lhumerus -20.5279 -18.8293 99.7539
lradius 138.131
lwrist 33.2219
lhand -25.0351 6.33497
lfingers 7.12502
lthumb 1.47766 36.3096
rfemur -56.0635 -6.66302 15.2167
rtibia 96.4627
rfoot -10.0177 -0.878493
rtoes -5.11404
lfemur -6.71073 -3.9002 -26.2985
ltibia 37.4753
lfoot -19.2441 -2.43026
ltoes -28.9616
121
root -0.60199 16.3109 11.6099 19.0073 2.7475 5.43308
lowerback 15.2412 -2.80426 -5.89952
upperback -0.373228 -4.72839 0.464291
thorax -8.4424 -2.00853 4.86586
lowerneck -26.4932 -3.36842 -8.61224
upperneck 2.9555 -3.11076 12.9535
head 5.43607 -0.624451 5.26488
rclavicle 5.561e-014 6.36111e-015
rhumerus -80.6823 13.3402 -91.4605
rradius 119.902
rwrist -7.1007
rhand -17.2679 35.9153
rfingers 7.12502
rthumb 8.97685 6.12629
lclavicle 5.561e-014 6.36111e-015
lhumerus -20.5888 -20.2072 99.0205
lradius 139.833
lwrist 32.103
lhand -25.914 5.19891
lfingers 7.12502
lthumb 0.628825 35.1777
rfemur -58.3363 -5.26622 15.7342
rtibia 93.3639
rfoot -9.95271 -1.43208
rtoes -3.82177
lfemur -4.16998 -3.36746 -25.9079
ltibia 35.1013
lfoot -15.0413 -3.98038
ltoes -31.2174
122
root -0.601174 16.3809 12.1996 19.16 1.27671 5.02647
lowerback 14.8556 -2.73202 -6.10162
upperback -0.573723 -4.62724 0.767275
thorax -8.4145 -1.94288 5.26655
lowerneck -26.6105 -3.05318 -8.64782
upperneck 3.0902 -2.64475 12.5944
head 5.43131 -0.422381 5.2101
rclavicle -2.44381e-014 -6.70898e-016
rhumerus -82.1151 13.7036 -90.8577
rradius 121.473
rwrist -7.81183
rhand -16.4038 35.4599
rfingers 7.12502
rthumb 9.81063 5.70846
lclavicle -2.44381e-014 -6.70898e-016
lhumerus -21.2288 -21.5068 98.5271
lradius 141.288
lwrist 29.6197
lhand -26.4686 4.53147
lfingers 7.12502
lthumb 0.0931252 34.5112
rfemur -60.2852 -3.86565 15.9793
rtibia 89.9027
rfoot -10.1961 -2.338
rtoes -4.73953
lfemur -1.71681 -2.87571 -25.8761
ltibia 32.5882
lfoot -9.04536 -5.75066
ltoes -31.0185
123
root -0.597989 16.4551 12.8041 19.1079 -0.130827 4.63028
lowerback 13.3323 -2.69368 -6.08426
upperback 0.206338 -4.44019 0.809588
thorax -6.73094 -1.95158 5.11521
lowerneck -27.0582 -2.79814 -8.35704
upperneck 2.48603 -2.29456 12.337
head 5.2527 -0.263922 5.11672
rclavicle 3.29983e-014 -2.57426e-014
rhumerus -81.8653 13.5901 -90.3726
rradius 122.413
rwrist -8.24107
rhand -15.9441 35.363
rfingers 7.12502
rthumb 10.2541 5.63297
lclavicle 3.29983e-014 -2.57426e-014
lhumerus -20.636 -23.1723 97.0069
lradius 142.197
lwrist 25.8579
lhand -27.5836 3.84234
lfingers 7.12502
lthumb -0.983758 33.8198
rfemur -61.593 -2.69078 16.244
rtibia 86.0358
rfoot -10.8189 -3.1722
rtoes -7.08171
lfemur 1.11156 -2.57578 -25.9014
ltibia 29.704
lfoot -0.702109 -7.3564
ltoes -29.5251
124
root -0.595408 16.5223 13.4222 18.86 -1.41343 4.30436
lowerback 14.5234 -2.54443 -6.02998
upperback -0.808661 -4.33036 1.06119
thorax -8.50313 -1.78818 5.47236
lowerneck -27.1696 -2.62007 -8.57479
upperneck 3.74495 -2.0314 11.9081
head 5.63088 -0.15537 5.05652
rclavicle -1.23868e-014 6.41081e-015
rhumerus -84.351 13.5646 -89.8983
rradius 123.269
rwrist -8.07461
rhand -15.9555 35.7157
rfingers 7.12502
rthumb 10.2431 5.98513
lclavicle -1.23868e-014 6.41081e-015
lhumerus -23.8735 -24.3973 97.6188
lradius 142.989
lwrist 20.373
lhand -28.9957 2.31511
lfingers 7.12502
lthumb -2.34753 32.2819
rfemur -62.2378 -1.91762 16.5841
rtibia 81.9224
rfoot -11.6698 -3.71752
rtoes -9.02801
lfemur 4.39693 -2.83567 -26.0896
ltibia 26.355
lfoot 10.562 -7.46635
ltoes -24.9659
125
root -0.593819 16.583 14.0425 18.648 -2.72455 3.95657
lowerback 14.2967 -2.45826 -5.93563
upperback -0.859997 -4.17775 1.18201
thorax -8.44771 -1.71826 5.50603
lowerneck -27.1102 -2.44469 -8.70437
upperneck 3.63702 -1.73398 11.746
head 5.55199 -0.0308141 5.05731
rclavicle 6.05408e-014 -2.27111e-014
rhumerus -85.052 13.3798 -89.3252
rradius 123.757
rwrist -7.31091
rhand -16.0689 35.9671
rfingers 7.12502
rthumb 10.1336 6.23113
lclavicle 6.05408e-014 -2.27111e-014
lhumerus -25.8331 -25.6003 97.5072
lradius 143.315
lwrist 14.1347
lhand -30.1982 0.760806
lfingers 7.12502
lthumb -3.5089 30.7117
rfemur -62.6784 -1.24253 17.0173
rtibia 77.5038
rfoot -11.745 -3.80743
rtoes -11.2095
lfemur 7.89373 -3.86625 -26.5235
ltibia 22.4063
lfoot 24.1375 -4.67266
ltoes -14.4095
126
root -0.592006 16.6381 14.6617 18.5767 -4.00438 3.51752
lowerback 13.8624 -2.38953 -5.70335
upperback -0.881637 -4.01266 1.30073
thorax -8.25234 -1.65602 5.44145
lowerneck -26.7849 -2.20986 -8.78175
upperneck 3.29318 -1.37015 11.5177
head 5.35125 0.112557 5.02765
rclavicle -2.85473e-014 -1.76297e-014
rhumerus -85.4857 13.1419 -88.7781
rradius 123.964
rwrist -6.26951
rhand -16.1917 36.2285
rfingers 7.12502
rthumb 10.0152 6.48675
lclavicle -2.85473e-014 -1.76297e-014
lhumerus -27.8079 -26.5307 97.3564
lradius 143.146
lwrist 7.42721
lhand -31.6968 -0.925045
lfingers 7.12502
lthumb -4.95598 28.997
rfemur -63.0655 -0.426361 17.4941
rtibia 72.7983
rfoot -11.9 -3.44696
rtoes -15.2636
lfemur 11.4745 -5.53477 -27.2047
ltibia 18.137
lfoot 32.2398 -2.63727
ltoes -10.7387
127
root -0.588385 16.6893 15.2821 18.5255 -5.18157 3.18273
lowerback 12.428 -2.49964 -4.84168
upperback -0.22941 -3.96522 0.797
thorax -6.83238 -1.75202 4.28097
lowerneck -26.6633 -1.88749 -8.24389
upperneck 2.71091 -1.08521 11.5049
head 5.11731 0.249009 4.95922
rclavicle 2.83268e-014 -1.19271e-015
rhumerus -84.7414 12.3863 -89.0625
rradius 123.793
rwrist -5.30731
rhand -16.639 36.4019
rfingers 7.12502
rthumb 9.58365 6.63989
lclavicle 2.83268e-014 -1.19271e-015
lhumerus -28.7738 -27.4507 95.5647
lradius 142.697
lwrist 2.07295
lhand -33.2233 -2.49257
lfingers 7.12502
lthumb -6.42981 27.3898
rfemur -63.1772 0.371191 17.7838
rtibia 67.9135
rfoot -11.8773 -2.55072
rtoes -18.686
lfemur 14.9691 -7.23052 -28.1703
ltibia 14.1693
lfoot 38.2912 -5.76012
ltoes -10.0821
128
root -0.582656 16.7442 15.8995 18.4469 -5.98037 2.97611
lowerback 13.2713 -2.22003 -5.24257
upperback -1.0314 -3.6658 1.53362
thorax -8.13539 -1.50667 5.33387
lowerneck -25.9512 -1.8843 -9.09184
upperneck 3.30876 -0.827627 10.8489
head 5.16567 0.295129 4.90502
rclavicle -3.03147e-014 4.76089e-014
rhumerus -86.2039 12.3873 -87.5755
rradius 124.009
rwrist -4.8653
rhand -16.8638 36.169
rfingers 7.12502
rthumb 9.36672 6.39714
lclavicle -3.03147e-014 4.76089e-014
lhumerus -32.4531 -27.9021 97.65
lradius 142.097
lwrist -1.79249
lhand -34.9145 -2.04339
lfingers 7.12502
lthumb -8.06225 27.7828
rfemur -62.8687 0.670198 18.1053
rtibia 62.9359
rfoot -11.2545 -1.01376
rtoes -17.8216
lfemur 17.7493 -8.1526 -28.9557
ltibia 11.3657
lfoot 42.7037 -10.9917
ltoes -0.196251
129
root -0.57531 16.7876 16.4968 18.381 -6.63471 2.90822
lowerback 13.2468 -2.23089 -5.01354
upperback -1.0689 -3.63797 1.59884
thorax -8.1747 -1.49951 5.26944
lowerneck -25.7769 -1.74372 -9.25569
upperneck 3.26755 -0.573591 10.5992
head 5.09639 0.391724 4.87375
rclavicle 1.70458e-014 -1.39149e-014
rhumerus -86.2427 11.9789 -86.9742
rradius 124.014
rwrist -4.10886
rhand -17.0214 35.8406
rfingers 7.12502
rthumb 9.21467 6.06193
lclavicle 1.70458e-014 -1.39149e-014
lhumerus -34.4597 -28.9742 97.8548
lradius 141.093
lwrist -2.88847
lhand -36.7481 1.51337
lfingers 7.12502
lthumb -9.83163 31.2638
rfemur -62.3598 0.571906 18.5411
rtibia 57.9909
rfoot -10.5384 0.567558
rtoes -18.156
lfemur 19.4424 -8.33327 -29.6327
ltibia 10.3852
lfoot 43.4527 -14.1034
ltoes 9.30823
130
root -0.576008 16.8219 17.0757 18.4058 -7.35043 3.20995
lowerback 13.3859 -2.20333 -5.34635
upperback -1.09128 -3.66193 1.6082
thorax -8.25556 -1.49173 5.48293
lowerneck -26.5264 -1.54241 -9.09796
upperneck 3.73495 -0.272439 10.1124
head 5.31293 0.521509 4.73635
rclavicle 5.24295e-014 -2.94201e-014
rhumerus -85.8559 11.5917 -86.2117
rradius 123.814
rwrist -2.90554
rhand -16.9278 35.7758
rfingers 7.12502
rthumb 9.30497 6.00115
lclavicle 5.24295e-014 -2.94201e-014
lhumerus -35.2114 -29.1885 96.9247
lradius 139.087
lwrist -3.21192
lhand -37.2742 1.47572
lfingers 7.12502
lthumb -10.3392 31.2016
rfemur -61.9699 0.42718 18.6467
rtibia 53.236
rfoot -9.99612 1.9605
rtoes -19.1521
lfemur 19.8325 -8.50206 -30.6759
ltibia 11.611
lfoot 41.1844 -15.5888
ltoes 11.381
131
root -0.581244 16.8561 17.6563 18.2945 -8.06077 3.66786
lowerback 13.6571 -2.09629 -5.87732
upperback -1.09035 -3.62322 1.58952
thorax -8.38537 -1.44279 5.7749
lowerneck -27.2735 -1.41851 -9.12088
upperneck 4.16715 -0.0277463 9.7854
head 5.52777 0.630138 4.67619
rclavicle 1.56046e-014 -2.06736e-014
rhumerus -85.3823 11.0192 -85.3868
rradius 123.432
rwrist -1.67837
rhand -16.9697 35.7922
rfingers 7.12502
rthumb 9.26455 6.01573
lclavicle 1.56046e-014 -2.06736e-014
lhumerus -36.3057 -29.4405 96.57
lradius 136.866
lwrist -3.03037
lhand -37.2999 2.48464
lfingers 7.12502
lthumb -10.3639 32.2092
rfemur -61.4744 0.235894 18.6359
rtibia 48.9364
rfoot -9.06274 3.14947
rtoes -20.4627
lfemur 19.7424 -8.46838 -31.7624
ltibia 14.0317
lfoot 40.1637 -16.4418
ltoes 13.2867
132
root -0.584229 16.8721 18.2296 18.0182 -8.76457 4.26626
lowerback 13.9382 -1.90638 -6.42272
upperback -1.02806 -3.49085 1.43035
thorax -8.47663 -1.35407 5.90241
lowerneck -27.544 -1.33318 -9.16816
upperneck 4.13884 0.160426 9.48291
head 5.53359 0.700678 4.60755
rclavicle 5.29761e-014 5.76476e-015
rhumerus -84.8838 10.13 -84.7125
rradius 122.998
rwrist -0.912933
rhand -17.0802 35.8454
rfingers 7.12502
rthumb 9.15795 6.06428
lclavicle 5.29761e-014 5.76476e-015
lhumerus -37.9007 -29.2003 96.6674
lradius 134.435
lwrist -2.66097
lhand -36.7296 3.49243
lfingers 7.12502
lthumb -9.81378 33.2437
rfemur -60.823 -0.0568189 18.5798
rtibia 45.3545
rfoot -8.08257 3.60026
rtoes -22.7535
lfemur 19.653 -8.18567 -32.8216
ltibia 16.6246
lfoot 39.5568 -15.8192
ltoes 7.98768
133
root -0.583688 16.8656 18.7972 17.6147 -9.06968 4.96735
lowerback 14.3271 -1.81127 -6.77765
upperback -0.825193 -3.4651 1.18438
thorax -8.47629 -1.33574 5.84767
lowerneck -28.0174 -1.31265 -9.07179
upperneck 3.93776 0.235265 9.20424
head 5.52382 0.725038 4.51103
rclavicle -1.53064e-014 2.8625e-014
rhumerus -83.9303 9.06558 -84.0861
rradius 122.317
rwrist -0.292893
rhand -17.242 35.9318
rfingers 7.12502
rthumb 9.00181 6.14383
lclavicle -1.53064e-014 2.8625e-014
lhumerus -39.2497 -28.6981 96.5802
lradius 131.84
lwrist -1.97979
lhand -35.6787 4.87368
lfingers 7.12502
lthumb -8.79973 34.6702
rfemur -60.0114 -0.741882 18.5917
rtibia 42.5776
rfoot -7.37011 3.50037
rtoes -26.5002
lfemur 19.3704 -8.00939 -33.7305
ltibia 19.6706
lfoot 39.5081 -14.1851
ltoes 0.102013
